<svg xmlns="http://www.w3.org/2000/svg" width="32.381" height="32.526" viewBox="0 0 32.381 32.526"><defs><style>.a{fill:none;stroke:#29413b;stroke-linecap:round;stroke-linejoin:round;}</style></defs><g transform="translate(-251.039 -341.994)"><path class="a" d="M274.507,363.442c0,.116,2.575,8.091,2.575,8.091a.623.623,0,0,0,1.229,0s2.617-7.976,2.617-8.092" transform="translate(1.992 1.817)"/><line class="a" x2="2.87" transform="translate(278.26 370.823)"/><path class="a" d="M271,374.02H252.752a1.208,1.208,0,0,1-1.213-1.088V343.582a1.208,1.208,0,0,1,1.213-1.088h13.956l5.392,5.437v25A1.1,1.1,0,0,1,271,374.02Z" transform="translate(0 0)"/><path class="a" d="M265.5,342.5v5.436h5.368" transform="translate(1.211 0)"/><path class="a" d="M1.975,0H4.42a2,2,0,0,1,2,2V22.623a0,0,0,0,1,0,0H0a0,0,0,0,1,0,0V1.975A1.975,1.975,0,0,1,1.975,0Z" transform="translate(276.499 342.636)"/><line class="a" x2="4.307" transform="translate(256.95 353.368)"/><line class="a" x2="9.781" transform="translate(256.95 357.715)"/><line class="a" x2="9.781" transform="translate(256.95 362.062)"/><line class="a" x2="9.781" transform="translate(256.95 366.409)"/></g></svg>