<svg xmlns="http://www.w3.org/2000/svg" width="37.073" height="30.13" viewBox="0 0 37.073 30.13"><defs><style>.a{fill:none;stroke:#29413b;stroke-linecap:round;stroke-linejoin:round;}</style></defs><g transform="translate(-191.361 -3347.083)"><line class="a" x1="25.442" transform="translate(201.617 3359.034)"/><line class="a" x1="22.17" transform="translate(203.253 3353.796)"/><path class="a" d="M221.526,3363.406a11.389,11.389,0,0,0,.657-3.8c0-6.6-5.623-11.951-12.585-12.022,3.482.071,6.293,5.423,6.293,12.022a20.976,20.976,0,0,1-.736,5.605" transform="translate(4.876 0.001)"/><path class="a" d="M210.87,3347.583c-.025,0-.05,0-.074,0-3.5.039-6.323,5.406-6.323,12.025a22.086,22.086,0,0,0,.3,3.641" transform="translate(3.468 0)"/><path class="a" d="M215.183,3365.217a20.979,20.979,0,0,0,.736-5.605c0-6.6-2.811-11.951-6.293-12.021-.046,0-.089-.006-.135-.006v17" transform="translate(4.847 0)"/><path class="a" d="M206.133,3363.252a22.092,22.092,0,0,1-.3-3.641c0-6.619,2.828-11.986,6.323-12.024-6.991.039-12.648,5.405-12.648,12.024a11.423,11.423,0,0,0,.41,2.983" transform="translate(2.104 0.001)"/><path class="a" d="M218.189,3367l6.822-3.34c2.477-1.213,4.032,2.684,1.689,3.832-10.361,5.074-9.545,5.1-13.664,5.1a23.7,23.7,0,0,1-10.452-2.582c-1.416-.679-4.137.419-7.439,1.326a1.956,1.956,0,0,1-2.381-1.489c-.205-.8-1.03-3.559-.894-4.293a2.046,2.046,0,0,1,1.624-1.7c2.6-.448,10.486-2.131,14.69-.806l8.754,2.76c2.5.787,1.392,4.858-1.1,4.072l-9.2-2.9" transform="translate(0 4.115)"/></g></svg>