<svg xmlns="http://www.w3.org/2000/img" width="31.96" height="33.014" viewBox="0 0 31.96 33.014"><defs><style>.a{fill:none;stroke:#29413b;stroke-linecap:round;stroke-linejoin:round;}</style></defs><g transform="translate(-1242.035 -402.951)"><line class="a" y1="11.518" x2="0.001" transform="translate(1247.158 423.933)"/><path class="a" d="M1248.919,406.827c0,1.057-.937,2.533-2.093,2.533s-2.091-1.477-2.091-2.533a2.1,2.1,0,0,1,4.183,0Z" transform="translate(0.332 0.221)"/><path class="a" d="M1243.838,434.427l-.213-13.62c-.013-.275-.978.084-.989-.177-.392-9.633.482-10.245.581-10.321.116-.03,1.07-.053,1.357-.07a.971.971,0,0,1,.9.509,2.118,2.118,0,0,0,3.376,0,.969.969,0,0,1,.9-.509c.285.017,1.24.04,1.357.07.1.076.974.688.58,10.321-.01.261-.976-.1-.987.177l-.393,13.62" transform="translate(0 1.024)"/><path class="a" d="M1263.412,413.578h-4.255v3.847h.879l.7.7h1.088l.7-.7h.879Z" transform="translate(2.509 1.528)"/><path class="a" d="M1266.465,408.2a4.827,4.827,0,0,0-9.652,0,6.544,6.544,0,0,0,1.6,4.083l0,0a5.356,5.356,0,0,1,1.409,2.821h3.643v-.017l.017.017a5.423,5.423,0,0,1,1.394-2.831A6.54,6.54,0,0,0,1266.465,408.2Z" transform="translate(2.155 0)"/><line class="a" y1="4.276" transform="translate(1263.794 410.831)"/><line class="a" x1="1.998" transform="translate(1254.139 408.16)"/><line class="a" x1="1.614" y1="1.55" transform="translate(1255.329 403.706)"/><line class="a" y1="1.55" x2="1.614" transform="translate(1255.329 411.227)"/><line class="a" x2="1.998" transform="translate(1271.497 408.16)"/><line class="a" y1="1.55" x2="1.614" transform="translate(1270.69 403.706)"/><line class="a" x1="1.614" y1="1.55" transform="translate(1270.69 411.227)"/><path class="a" d="M1259.608,407.5l1.053.389.654-.389.625.371,1.082-.371" transform="translate(2.577 0.611)"/></g></svg>