<?xml version="1.0" encoding="utf-8"?>
<!-- Generator: Adobe Illustrator 21.0.0, SVG Export Plug-In . SVG Version: 6.00 Build 0)  -->
<svg version="1.1" id="Layer_1" xmlns="http://www.w3.org/2000/svg" xmlns:xlink="http://www.w3.org/1999/xlink" x="0px" y="0px"
	 viewBox="0 0 335.4 94" style="enable-background:new 0 0 335.4 94;" xml:space="preserve">
<style type="text/css">
	.st0{fill:#8C0B42;}
	.st1{fill:#FFCA38;}
	.st2{fill:none;stroke:#55565A;stroke-width:0.8259;stroke-miterlimit:10;}
	.st3{fill:none;}
	.st4{fill:#FFFFFF;}
	.st5{fill:#007042;}
</style>
<title>Artboard 1</title>
<g>
	<g>
		<path class="st0" d="M307.3,66.2c0,0-0.7-0.7-1.9-2.1c-1.5-1.6-1.3-3.3-1.3-3.3V22.9h-14.4v30.4c-0.1,2.8-3,3.6-4.6,3.6
			c-2.2,0-3.6-1.3-3.6-3.4V22.9h-13.9l0,0c-3.3,0-5.8,0-9.8,0c-7.7,0-14.8,1.2-17.3,7.6l-1.5-5.6c-0.3-1.2-1.6-1.9-2.8-1.9h-25.1
			c-0.3,0-0.4,0.1-0.3,0.4c0,0,0.7,0.6,1.9,2.1c1.8,1.9,1,4.6,1,4.6l-9.2,36.6H218l1.9-8h12.9l2.1,8h13.6c1.3,0,2.7,0,3.9,0
			c7.3,0,13-0.7,16-5.2c2.2,4.2,6.8,6.1,15,5.3c2.8-0.3,5.6-1.6,6.8-3.7l0.7,1.6c0.4,1,1.5,1.9,2.8,1.9H307
			C307.5,66.6,307.6,66.5,307.3,66.2 M222.1,50.6l4.4-17.9l4.4,17.9H222.1z"/>
		<path class="st1" d="M237.4,30.7c0,0-0.1,0.1,0,0.1V31l2.5,2.4l0,0l0,0l0,0v-0.1c0-0.4,0.1-0.7,0.1-1.2l0,0l0,0l-2.4-1.5
			C237.7,30.7,237.5,30.6,237.4,30.7"/>
		<path class="st1" d="M235,34.2l4.7,3.1l0,0l0,0l0,0l0,0c0-0.4,0-1,0-1.5l0,0v-0.1l0,0l-4.4-1.8c0,0-0.1,0-0.3,0.1
			C234.9,34,235,34.2,235,34.2"/>
		<path class="st1" d="M233.2,37.7l7.6,3.3h0.1l0,0l0,0v-0.1c-0.3-0.7-0.6-1.3-0.7-2.2l0,0l0,0l-6.7-1.5c0,0-0.1,0-0.3,0.1
			C233.1,37.6,233.2,37.7,233.2,37.7"/>
		<path class="st1" d="M259.8,54.3c0-3.1-3.6-4.3-7.6-5.8c-4.2-1.5-8.9-3.1-11.1-7.1l0,0l0,0l-8.7-0.6c0,0-0.3,0-0.3,0.1
			c0,0.1,0.1,0.3,0.1,0.3l8.9,2.2c0,0,0.1,0,0.1,0.1l-0.1,0.1l-9.2,0.9c0,0-0.1,0-0.1,0.3c0,0.1,0.1,0.3,0.1,0.3l9.2,0.9h0.1
			c0,0.1-0.1,0.1-0.1,0.1l-8.7,2.2c0,0-0.1,0.1-0.1,0.3c0,0.1,0.3,0.1,0.3,0.1l9.2-0.6h0.1c0,0.1,0,0.1,0,0.1l-8.3,3.6
			c0,0-0.1,0.1-0.1,0.3c0,0.1,0.3,0.1,0.3,0.1l8.9-1.9h0.1v0.1l-7.4,4.9c0,0-0.1,0.1,0,0.3c0.1,0.1,0.3,0.1,0.3,0.1l8.3-3.4h0.1v0.1
			l-6.4,5.9c0,0-0.1,0.1,0,0.3c0.1,0.1,0.3,0,0.3,0l7.6-4.6h0.1c0.1,0,0,0.1,0,0.1l-5.2,6.8c0,0-0.1,0.1,0.1,0.3
			c0.1,0.1,0.3,0,0.3,0l6.5-5.8h0.1c0.1,0,0,0.1,0,0.1l-3.7,7.6c0,0,0,0.1,0.1,0.3c0.1,0.1,0.3,0,0.3,0l5.5-6.7c0,0,2.1,0.7,3,0.9
			c2.5,0.3,4.9-0.3,6.2-1.5C259.5,55.9,259.8,55.2,259.8,54.3"/>
		<path class="st1" d="M271.8,61.4l-2.1-2.8c-0.1,0.4-0.4,1.2-0.4,1.2l2.1,1.8c0,0,0.1,0.1,0.3,0C271.9,61.6,271.8,61.4,271.8,61.4"
			/>
		<path class="st1" d="M274.7,58.6l-4.3-4c0,0.7-0.1,1.9-0.1,1.9l4.2,2.5c0,0,0.1,0.1,0.3,0C274.9,58.8,274.7,58.6,274.7,58.6"/>
		<path class="st1" d="M277.1,55.5l-6.8-4.4c0.1,0.9,0.1,2.4,0.1,2.4l6.4,2.5c0,0,0.1,0,0.3-0.1C277.3,55.6,277.1,55.5,277.1,55.5"
			/>
		<path class="st1" d="M280.4,44.8c0,0,0-0.1-0.1-0.1c-0.1,0-0.1-0.1-0.1-0.1l-9-0.9l0,0h-0.1l0,0l0,0l0,0l8.9-2.2
			c0,0,0.1,0,0.1-0.1v-0.1c0-0.1-0.1-0.1-0.3-0.1s-9,0.6-9,0.6l0,0h-0.1l0,0l0,0l8.3-3.6c0,0,0,0,0.1-0.1v-0.1
			c0-0.1-0.3-0.1-0.3-0.1c-0.1,0-8.9,2.1-8.9,2.1l0,0h-0.1l0,0l0,0l0,0l7.4-4.9l0.1-0.1v-0.1c-0.1-0.1-0.3-0.1-0.3-0.1
			c-0.1,0-8.3,3.4-8.3,3.4l0,0h-0.1l0,0l0,0l0,0l6.4-5.9c0,0,0.1,0,0.1-0.1v-0.1c-0.1-0.1-0.3,0-0.3,0l-7.6,4.6l0,0l0,0h-0.1l0,0
			l0,0l0,0l0,0c0,0,4.9-6.4,5-6.8l0.1-0.1c0,0,0-0.1-0.1-0.1c0,0-0.3-0.1-0.3,0c-0.1,0.1-6.5,5.8-6.5,5.8l0,0h-0.1l0,0l0,0l0,0
			l3.7-7.6c0,0,0.1-0.3-0.1-0.3c-0.1-0.1-0.3,0-0.3,0l-5.5,6.8c0,0-2.8-1.2-5.3-1.2c-2.4,0-4.2,0.4-5.2,1.3
			c-0.6,0.6-0.9,1.3-0.9,2.1c0,1.2,0.7,2.1,2.1,3.1c1.3,0.7,3.1,1.5,4.9,2.2c2.4,0.9,5.2,1.9,7.6,3.6c4.3,3,4.7,6.8,4.7,6.8l8.4,1.9
			c0,0,0.1,0,0.3-0.1v-0.1l-0.1-0.1l-8.2-3.6l0,0l0,0l0,0c0,0,0,0,0.1,0l0,0c0,0,8.7,0.6,9.2,0.6c0,0,0.1,0,0.3-0.1v-0.1l-0.1-0.1
			l-8.7-2.2l0,0l0,0l0,0c0,0,0-0.1,0.1-0.1l0,0l9-0.9h0.1C280.4,45,280.4,45,280.4,44.8"/>
		<path class="st0" d="M309.1,28.7c-1.5,0-2.7-1.2-2.7-2.7s1.2-2.7,2.7-2.7c1.5,0,2.7,1.2,2.7,2.7C311.8,27.5,310.6,28.7,309.1,28.7
			 M309.1,22.9c-1.6,0-3.1,1.3-3.1,3.1s1.5,3.1,3.1,3.1c1.8,0,3.1-1.3,3.1-3.1C312.2,24.4,310.9,22.9,309.1,22.9z M307.9,24.2h1
			c0.4,0,0.7,0,1,0.3c0.1,0.1,0.4,0.4,0.4,0.9c0,0.6-0.4,0.9-0.7,0.9l0.7,1.3h-0.7l-0.7-1.3h-0.3v1.3h-0.6v-3.4H307.9z M308.7,24.8
			v1h0.1c0.1,0,0.3,0,0.4,0s0.6,0,0.6-0.6c0,0,0-0.3-0.3-0.4c-0.1,0-0.3,0-0.7,0C308.8,24.8,308.7,24.8,308.7,24.8z"/>
	</g>
	<line class="st2" x1="167.9" y1="88.1" x2="167.9" y2="6.3"/>
	<g>
		<g>
			<g>
				<path class="st3" d="M64.1,55.4l-0.6-3.9l0,0l-0.3,4l-0.9,0.1l-1.6-3.7l0,0l0.7,3.9l-1.2,0.1l-1-5.6l1.6-0.3l1.5,3.6l0,0
					l0.3-3.9l1.8-0.3l1,5.6L64.1,55.4z"/>
				<path class="st3" d="M68.8,54.5l-0.4-1l-1.3,0.3v1l-1.3,0.3l0.4-5.9l1.6-0.3l2.4,5.5L68.8,54.5z M67.2,50.2L67.2,50.2l-0.1,2.5
					l1-0.1L67.2,50.2z"/>
				<path class="st3" d="M72.2,49.4c-0.3-0.1-0.6-0.3-0.7-0.1c-0.3,0-0.6,0.3-0.4,0.7c0,0.3,0.3,0.4,0.9,0.6
					c0.6,0.1,1.3,0.4,1.5,1.5c0.1,1.2-0.4,1.9-1.5,2.2c-0.7,0.1-1.3,0-1.8-0.3l0.4-1c0.3,0.1,0.6,0.3,1,0.3c0.3,0,0.4-0.3,0.4-0.7
					c0-0.3-0.3-0.4-0.9-0.6c-0.7-0.1-1.2-0.4-1.5-1.5c-0.1-1.2,0.6-1.9,1.5-2.1c0.6-0.1,1.2,0,1.5,0.3L72.2,49.4z"/>
				<path class="st3" d="M75.2,48.7l0.7,4.6l-1.2,0.1L74,48.8L73,49l-0.1-1l3.3-0.6l0.1,1L75.2,48.7z"/>
				<path class="st3" d="M77.6,53l-1-5.6l2.7-0.4l0.1,1.2l-1.5,0.3l0.1,1l1.3-0.3l0.1,1l-1.3,0.3l0.1,1.2l1.6-0.3l0.1,1.2L77.6,53z"
					/>
				<path class="st3" d="M83.5,51.9l-1.2-2.1h-0.4l0.4,2.2l-1.2,0.1l-1-5.6l1.8-0.3c1-0.1,1.8,0.3,2.1,1.3c0.1,0.9-0.1,1.3-0.6,1.6
					l1.5,2.4L83.5,51.9z M82,47.5h-0.4l0.3,1.5h0.4c0.3,0,0.6-0.3,0.6-0.9C82.8,47.5,82.3,47.3,82,47.5z"/>
				<path class="st3" d="M87.1,51.2l-1-5.6l1.3-0.3l0.7,4.4l1.5-0.3l0.1,1.2L87.1,51.2z"/>
				<path class="st3" d="M92.3,50.5c-1.3,0.3-2.4-0.9-2.7-2.7c-0.3-1.8,0.3-3.1,1.6-3.4c1.3-0.3,2.4,0.7,2.7,2.5
					C94.2,49,93.6,50.3,92.3,50.5z M91.4,45.9c-0.6,0.1-0.7,0.9-0.6,1.9s0.6,1.6,1.2,1.6c0.6-0.1,0.7-0.9,0.6-1.9
					C92.4,46.5,92,45.7,91.4,45.9z"/>
				<path class="st3" d="M97.3,49.6c-1.5,0.3-2.5-0.7-2.8-2.5c-0.3-1.8,0.3-3.1,1.6-3.4c0.7-0.1,1.3,0,1.6,0.4l-0.6,1
					c-0.3-0.3-0.4-0.3-0.9-0.3c-0.7,0.1-0.9,1-0.7,1.9s0.6,1.8,1.3,1.6c0.1,0,0.3-0.1,0.4-0.1l-0.1-1l-0.4,0.1l-0.1-1.2l1.8-0.3
					l0.6,3C98.3,49.3,97.9,49.6,97.3,49.6z"/>
				<path class="st3" d="M101.6,48.8c-1.3,0.3-2.4-0.9-2.7-2.7c-0.3-1.8,0.3-3.1,1.6-3.4c1.3-0.3,2.4,0.7,2.7,2.5
					C103.5,47.3,102.9,48.7,101.6,48.8z M100.9,44.1c-0.6,0.1-0.7,0.9-0.6,1.9c0.1,1,0.6,1.6,1.2,1.6c0.6-0.1,0.7-0.9,0.6-1.9
					C101.7,44.7,101.3,44.1,100.9,44.1z"/>
				<path class="st3" d="M107.7,47.6l-1.3,0.3l0.9-4.9l-1.9,0.3l-0.1-1.2l3.3-0.6l0.1,0.9L107.7,47.6z"/>
				<path class="st3" d="M110.6,47.5h-0.7l0.4-6.5h0.7L110.6,47.5z"/>
				<path class="st3" d="M114.6,43.9l-0.9,1.5l1.8-0.3l0.1,1l-3.4,0.6l-0.1-1.2l1.3-2.2c0.1-0.3,0.3-0.7,0.3-1
					c0-0.3-0.3-0.6-0.6-0.4c-0.3,0-0.4,0.3-0.4,0.9l-1.2,0.1c-0.1-1.2,0.6-1.9,1.5-2.1c1-0.1,1.8,0.3,1.9,1.3
					C115.4,42.8,115.1,43.5,114.6,43.9z"/>
				<path class="st3" d="M118.5,45.9c-1.5,0.3-2.2-1.3-2.4-2.7c-0.3-1.3-0.1-3,1.3-3.3c1.5-0.3,2.2,1.3,2.4,2.7
					C120.1,43.9,120,45.6,118.5,45.9z M117.6,41.1c-0.4,0.1-0.4,1.2-0.3,1.9c0.1,0.7,0.4,1.8,0.9,1.8c0.4-0.1,0.4-1.2,0.3-1.9
					C118.3,42,118.2,41,117.6,41.1z"/>
				<path class="st3" d="M122.3,45.1l-0.7-4.2l-0.7,0.7l-0.7-0.9l1.3-1.5l1.2-0.1l1,5.6L122.3,45.1z"/>
				<path class="st3" d="M128,42.9l0.1,1.2l-1.2,0.1l-0.1-1.2l-2.1,0.3l-0.1-1l1-3.7l1.5-0.3l0.6,3.4l0.6-0.1l0.1,1L128,42.9z
					 M126.2,39.8L126.2,39.8l-0.6,2.4l1-0.1L126.2,39.8z"/>
			</g>
			<g>
				<g>
					<circle class="st4" cx="93.9" cy="47.2" r="37.1"/>
					<path class="st5" d="M97.6,26.2c-0.3,0-1.9-0.3-3.7-0.3c-1.8,0-3.4,0.3-3.7,0.3c-0.1,0-0.3-0.1-0.1-0.3c0.1-0.1,3.9-3,3.9-3
						s3.7,2.8,3.9,3C97.9,26,97.7,26.3,97.6,26.2z M91.2,44.5c0,0-0.1,0-0.3,0.3c0.7,0.6,1.3,1.9,3,1.9s2.2-1.3,3-1.9
						c0-0.1-0.3-0.3-0.3-0.3s-1,0.3-2.7,0.3C92.1,44.8,91.2,44.5,91.2,44.5z M93.9,42.3c-0.4,0-0.6-0.1-0.9-0.1
						c-0.3,0-0.9,0.3-1,0.4c0,0.1,0,0.1,0.1,0.3c0.6,0.1,0.9,0.4,1.8,0.4c0.7,0,1-0.3,1.8-0.4c0.1-0.1,0.1-0.1,0.1-0.3
						c-0.1-0.1-0.7-0.4-1-0.4C94.3,42,94.3,42.3,93.9,42.3z M130.8,49.3c0,0.9-0.1,1.8-0.3,2.7c-4.2,0.7-5.6-3-9.9-2.8
						c0.3,0.9,0.4,1.8,0.6,2.8c3.6,0,4.9,3.3,8.9,2.8c-0.1,1-0.4,2.1-0.7,3c-3.1,0.3-4.2-2.8-7.9-2.7c0,0.4,0,1,0,1.5
						c0,0.3,0,0.6,0,0.9c3.1,0,4,2.8,7,2.7c-0.3,1-0.7,1.9-1.2,3c-2.1-0.1-2.8-2.8-6.1-2.7c-0.1,0.7-0.1,1.3-0.3,2.1
						c2.8-0.1,3.4,2.4,5.3,2.5c-0.4,0.9-1,1.8-1.6,2.7c-1.2-0.6-2.2-2.5-4.4-2.7c0.3-0.7,0.4-1.5,0.6-2.2c-1.9,0-4.3-0.7-6.2-2.5
						c0.6-3.6-4.9-7.1-4.9-9.6c0-2.8,1.5-4.3,1.5-8.2c0-2.8-1.3-5.8-3.4-7.9c-0.4-0.4-0.7-0.7-1.3-1c1.9,2.4,3.3,5,3.3,8.3
						c0,3.6-1.6,5.5-1.6,8.7c0,3.3,4.7,6.1,4.7,9.5c0,1.3-0.4,2.7-1.8,5.2c2.1,2.1,4.9,3.3,6.8,3.3c0.6,0,0.9-0.1,1-0.6
						c0.1-0.4,0.3-0.7,0.4-1.2c1.9,0.1,2.8,1.8,3.9,2.5c-0.6,0.7-1.2,1.6-1.9,2.4c-0.7-0.7-1.6-2.1-3.1-2.5c-0.3,0.4-0.6,1-0.7,1.5
						c1.2,0.3,2.1,1.6,2.7,2.4c-0.7,0.7-1.5,1.5-2.2,2.1c-0.4-0.7-1.2-1.6-2.1-2.2c-0.3,0.4-0.6,0.7-0.9,1.2
						c0.7,0.4,1.3,1.3,1.8,2.1c-0.9,0.7-1.8,1.3-2.7,1.9c-0.4-3.7-5.6-6.4-4.2-10.7c-0.4,0.7-1,1.8-1,2.8c0,3.1,3.4,5.6,3.6,8.7
						c-0.7,0.4-1.5,0.7-2.1,1.2c-0.1-3.4-3.7-7.3-3.7-10.1c0-3.1,4.2-6.4,4.2-10.1c0-3.7-4.7-6.4-4.7-9.6c0-3.3,2.1-5.2,2.1-9.3
						c0-3.1-1.5-6.2-3.7-8.2c-0.4-0.3-0.7-0.6-1.3-0.9c2.1,2.5,3.4,4.9,3.4,8.4c0,4-2.4,6.1-2.4,9.9c0,3.9,4.7,6.1,4.7,9.6
						s-4.3,6.7-4.3,10.4c0,3.4,3.9,6.7,3.9,10.7c-0.9,0.3-1.6,0.7-2.5,1c0.4-4-3.9-8.2-3.9-11.4c0-3.6,4.6-6.7,4.6-10.5
						s-4.6-5.6-4.6-9.6s2.8-6.2,2.8-10.5c0-3.4-1.6-6.5-4.2-8.4l-0.1-0.1c-0.3-0.1-0.4,0-0.3,0.3c1.8,2.2,2.7,4.4,2.7,7.7
						c0,4-3.3,7.3-3.3,11.3c0,4.6,4.3,5.9,4.3,9.6c0,3.7-4.6,6.8-4.6,10.8c0,3.7,4.4,7.9,3.7,12.2c-0.9,0.3-1.8,0.4-2.7,0.6
						c0.9-5.3-3.6-9.2-3.6-12.6c0-3.9,4.9-7.1,4.9-10.8c0-3.6-3.4-4.6-3.9-8.2c0-0.4-0.4-0.9-1-0.7c-0.7,0.1-1.6,0.6-3,0.6
						c-1.5,0-2.4-0.4-3-0.6c-0.6-0.1-0.9,0.3-1,0.7c-0.4,3.6-3.9,4.7-3.9,8.2c0,3.7,4.9,7.1,4.9,10.8c0,3.6-4.3,7.3-3.6,12.6
						c-0.9-0.1-1.8-0.3-2.7-0.6c-0.7-4.3,3.7-8.4,3.7-12.2c0-4-4.6-7-4.6-10.8c0-3.7,4.3-5,4.3-9.6c0-3.9-3.3-7.1-3.3-11.3
						c0-3.3,0.9-5.5,2.7-7.7c0.1-0.1,0-0.4-0.3-0.3l-0.1,0.1c-2.5,1.9-4.2,5-4.2,8.4c0,4.4,2.8,6.7,2.8,10.5S81,56.2,81,60.1
						s4.4,7,4.4,10.5c0,3.3-4.3,7.4-3.9,11.4c-0.9-0.3-1.8-0.6-2.5-1c0-4,3.9-7.4,3.9-10.7c0-3.7-4.3-6.7-4.3-10.4
						c0-3.6,4.7-5.8,4.7-9.6S81,44.2,81,40.4c0-3.6,1.2-5.8,3.4-8.4c-0.4,0.3-0.9,0.6-1.3,0.9c-2.2,1.9-3.7,5-3.7,8.2
						c0,4.2,2.1,6.1,2.1,9.3c0,3.3-4.7,5.9-4.7,9.6c0,3.7,4.2,7,4.2,10.1c0,2.8-3.6,6.7-3.7,10.1c-0.7-0.4-1.5-0.7-2.1-1.2
						c0.3-3.1,3.6-5.6,3.6-8.7c0-1.2-0.6-2.1-1-2.8c1.3,4.3-3.7,7-4.2,10.7c-0.9-0.6-1.8-1.3-2.7-1.9c0.4-0.7,1-1.5,1.8-2.1
						c-0.3-0.4-0.6-0.7-0.9-1.2c-0.9,0.4-1.6,1.5-2.1,2.2c-0.7-0.6-1.5-1.3-2.2-2.1c0.6-0.7,1.5-2.1,2.7-2.4
						c-0.3-0.4-0.6-0.9-0.7-1.5c-1.5,0.4-2.4,1.8-3.1,2.5c-0.6-0.7-1.3-1.5-1.9-2.4c1-0.7,1.9-2.5,3.9-2.5c0.1,0.4,0.3,0.7,0.4,1.2
						c0.1,0.4,0.6,0.6,1,0.6c1.8,0,4.6-1.2,6.8-3.3c-1.3-2.5-1.8-3.9-1.8-5.2c0-3.4,4.7-6.2,4.7-9.5c0-3.3-1.6-5.2-1.6-8.7
						c0-3.3,1.5-5.9,3.3-8.3c-0.4,0.3-0.9,0.6-1.3,1c-2.1,2.1-3.4,5-3.4,7.9c0,3.7,1.5,5.3,1.5,8.2c0,2.5-5.5,6.1-4.9,9.6
						c-1.9,1.8-4.2,2.5-6.2,2.5c0.1,0.7,0.4,1.5,0.6,2.2c-2.2,0.1-3.3,2.1-4.4,2.7c-0.6-0.9-1.2-1.8-1.6-2.7
						c1.9-0.1,2.5-2.8,5.3-2.5c-0.1-0.7-0.3-1.3-0.3-2.1c-3.3-0.1-3.9,2.5-6.1,2.7c-0.4-0.9-0.9-1.9-1.2-3c3,0.1,3.9-2.7,7-2.7
						c0-0.3,0-0.6,0-0.9c0-0.6,0-1,0-1.5c-3.6-0.1-4.7,3-7.9,2.7c-0.3-1-0.6-1.9-0.7-3c4,0.4,5.3-2.8,8.9-2.8
						c0.1-0.9,0.3-1.9,0.6-2.8c-4.3-0.1-5.8,3.6-9.9,2.8c-0.1-0.9-0.1-1.8-0.3-2.7c4.9,0.6,6.7-3.4,11.1-3c0.4-1,0.9-2.1,1.5-3.1
						c-5.5-1-7.4,3.7-12.6,3c0.9-20,17.2-36,37.4-36c20,0,36.3,16,36.9,36c-5.2,0.7-7.1-4-12.6-3c0.6,1,1,2.1,1.5,3.1
						C124.1,45.7,125.9,49.7,130.8,49.3z M77.9,33.7c-2.7-1.2-6.1-0.9-8.9,0.9c-0.4-2.7-1.9-4.9-3.9-6.4c-0.3-0.1-0.6,0-0.6,0.3
						C65,34,61.7,38.9,57.7,43c4.2,1.2,7.6-4,12.9-2.2C72.7,38.2,75.1,35.6,77.9,33.7z M93.9,30.3c-3.4,0-6.4,1.9-7.1,4.4
						c0,0.1,0,0.3,0.3,0.1c0.6-0.3,1.3-0.4,2.1-0.4c1.3,0,2.7,0.4,3.4,1.5c0.3,1,0.3,2.7,0,3.6c-0.6-0.1-0.7-0.6-1.3-0.6
						c-0.6,0-1,0.4-1.9,0.4s-1-0.4-1.6-0.4c-0.7,0-0.9,0.7-0.9,1.6c0,3.9,3.6,9,7.3,9s7.3-5.3,7.3-9c0-0.9-0.1-1.6-0.9-1.6
						c-0.4,0.3-0.7,0.6-1.6,0.6S97.6,39,97,39c-0.7,0-0.6,1.5-1.5,1.5c-0.6-1.3-0.6-3-0.1-4.4c0.7-0.9,1.9-1.5,3.4-1.5
						c0.7,0,1.5,0.1,2.1,0.4c0.3,0.1,0.3,0,0.3-0.1C100.1,32.4,97.3,30.3,93.9,30.3z M99.4,35.8c-0.9,0-1.8,0.3-2.4,0.9
						c0,0.1,0,0.4,0,0.6c1.5-0.4,2.8-0.6,3.4,0.1c0.3-0.3,0.4-0.6,0.4-0.9C100.9,36.2,100.3,35.8,99.4,35.8z M87.4,37.6
						c0.7-0.7,2.2-0.7,3.9-0.1c0-0.7-1.3-1.6-2.7-1.6c-1,0-1.5,0.3-1.5,0.9C86.9,37,86.9,37.3,87.4,37.6z M110.9,24.7
						c-2.7,0.1-5,1.2-7,2.7c0.7-2.2,1.8-4.3,3.1-6.2c-3.4,0.3-6.4,1.6-8.4,3.9L97,20.7l3.7-3.3l-4.9-0.3l-1.9-4.6L92,17.1l-5,0.1
						l3.7,3.3L89,24.8c-2.1-2.2-5-3.4-8.4-3.9c1.3,1.9,2.4,4,3.1,6.2c-1.9-1.5-4.3-2.5-7-2.7c1.6,2.1,3.1,4.3,4.2,6.7
						c0.1,0.3,0.4,0.3,0.6,0.1c3.7-1.8,7.9-2.8,12.3-2.8s8.6,1,12.3,2.8c0.3,0.1,0.6,0,0.6-0.1C107.8,29,109.3,26.7,110.9,24.7z
						 M116.9,41c5.3-1.8,8.7,3.4,12.9,2.2c-4-4.3-7.3-9-6.8-14.5c0-0.3-0.3-0.4-0.6-0.3c-2.1,1.3-3.4,3.7-3.9,6.4
						c-2.8-1.8-6.1-2.1-8.9-0.9C112.6,35.6,114.9,38.2,116.9,41z"/>
				</g>
			</g>
		</g>
		<g>
			<path class="st5" d="M117.8,79.7c1.6,0,3.1,1.3,3.1,3.1s-1.3,3.1-3.1,3.1c-1.6,0-3.1-1.3-3.1-3.1C114.8,81,116.1,79.7,117.8,79.7
				z M117.8,85.3c1.3,0,2.5-1.2,2.5-2.7c0-1.5-1.2-2.7-2.5-2.7c-1.5,0-2.5,1.2-2.5,2.7C115.2,84.1,116.4,85.3,117.8,85.3z
				 M116.7,80.8h1.3c0.9,0,1.2,0.3,1.2,1c0,0.6-0.4,0.9-0.9,1l1,1.6h-0.6l-1-1.5h-0.6v1.5h-0.6v-3.7H116.7z M117.2,82.5h0.6
				c0.4,0,0.9,0,0.9-0.6c0-0.4-0.4-0.6-0.7-0.6h-0.7V82.5z"/>
		</g>
	</g>
</g>
</svg>
